<?xml version="1.0" encoding="UTF-8" standalone="no"?>
<!DOCTYPE svg PUBLIC "-//W3C//DTD SVG 1.1//EN" "http://www.w3.org/Graphics/SVG/1.1/DTD/svg11.dtd">
<svg width="41px" height="103px" version="1.1" xmlns="http://www.w3.org/2000/svg" xmlns:xlink="http://www.w3.org/1999/xlink" xml:space="preserve" xmlns:serif="http://www.serif.com/" style="fill-rule:evenodd;clip-rule:evenodd;stroke-linejoin:round;stroke-miterlimit:1.41421;">
    <g transform="matrix(0.701462,0.00843805,-0.0121779,0.480804,-159.936,-15.6223)">
        <path d="M238.177,30.593C238.177,29.392 237.508,28.417 236.685,28.417L233.701,28.417C232.877,28.417 232.209,29.392 232.209,30.593L232.209,240.01C232.209,241.211 232.877,242.186 233.701,242.186L236.685,242.186C237.508,242.186 238.177,241.211 238.177,240.01L238.177,30.593Z"/>
    </g>
    <g transform="matrix(0.697673,-0.00839247,0.0121779,0.480804,-128.734,-11.6478)">
        <path d="M238.177,30.581C238.177,29.387 237.508,28.417 236.685,28.417L233.701,28.417C232.877,28.417 232.209,29.387 232.209,30.581L232.209,240.022C232.209,241.216 232.877,242.186 233.701,242.186L236.685,242.186C237.508,242.186 238.177,241.216 238.177,240.022L238.177,30.581Z"/>
    </g>
    <g transform="matrix(-0.0201379,-0.499144,0.160568,-0.00328183,3.55431,127.205)">
        <path d="M238.177,33.058C238.177,30.497 237.508,28.417 236.685,28.417L233.701,28.417C232.877,28.417 232.209,30.497 232.209,33.058L232.209,237.545C232.209,240.106 232.877,242.186 233.701,242.186L236.685,242.186C237.508,242.186 238.177,240.106 238.177,237.545L238.177,33.058Z"/>
    </g>
    <g transform="matrix(0.00126426,-0.499349,0.160634,0.000206034,-0.78625,140.939)">
        <path d="M238.177,33.055C238.177,30.495 237.508,28.417 236.685,28.417L233.701,28.417C232.877,28.417 232.209,30.495 232.209,33.055L232.209,237.548C232.209,240.108 232.877,242.186 233.701,242.186L236.685,242.186C237.508,242.186 238.177,240.108 238.177,237.548L238.177,33.055Z"/>
    </g>
    <g transform="matrix(-0.055042,-0.49781,0.160139,-0.00897009,12.2944,153.9)">
        <path d="M238.177,33.082C238.177,30.507 237.508,28.417 236.685,28.417L233.701,28.417C232.877,28.417 232.209,30.507 232.209,33.082L232.209,237.521C232.209,240.096 232.877,242.186 233.701,242.186L236.685,242.186C237.508,242.186 238.177,240.096 238.177,237.521L238.177,33.082Z"/>
    </g>
    <g transform="matrix(0.068007,-0.496998,0.159878,0.011083,-16.6788,164.303)">
        <path d="M238.177,33.097C238.177,30.514 237.508,28.417 236.685,28.417L233.701,28.417C232.877,28.417 232.209,30.514 232.209,33.097L232.209,237.506C232.209,240.089 232.877,242.186 233.701,242.186L236.685,242.186C237.508,242.186 238.177,240.089 238.177,237.506L238.177,33.097Z"/>
    </g>
    <g transform="matrix(-0.0295317,-0.498907,0.160492,-0.00481273,6.46229,180.273)">
        <path d="M238.177,33.063C238.177,30.498 237.508,28.417 236.685,28.417L233.701,28.417C232.877,28.417 232.209,30.498 232.209,33.063L232.209,237.54C232.209,240.104 232.877,242.186 233.701,242.186L236.685,242.186C237.508,242.186 238.177,240.104 238.177,237.54L238.177,33.063Z"/>
    </g>
    <g transform="matrix(-0.0746042,-0.496518,0.159724,-0.0121581,16.0216,195.544)">
        <path d="M238.177,33.106C238.177,30.518 237.508,28.417 236.685,28.417L233.701,28.417C232.877,28.417 232.209,30.518 232.209,33.106L232.209,237.497C232.209,240.085 232.877,242.186 233.701,242.186L236.685,242.186C237.508,242.186 238.177,240.085 238.177,237.497L238.177,33.106Z"/>
    </g>
    <g transform="matrix(0.0243616,-0.499048,0.160538,0.00397017,-6.89026,206.642)">
        <path d="M238.177,33.06C238.177,30.497 237.508,28.417 236.685,28.417L233.701,28.417C232.877,28.417 232.209,30.497 232.209,33.06L232.209,237.543C232.209,240.106 232.877,242.186 233.701,242.186L236.685,242.186C237.508,242.186 238.177,240.106 238.177,237.543L238.177,33.06Z"/>
    </g>
</svg>
